<svg width="58" height="31" viewBox="0 0 58 31" fill="none" xmlns="http://www.w3.org/2000/svg">
<circle cx="34.042" cy="20.1738" r="10.087" transform="rotate(-180 34.042 20.1738)" fill="#848484"/>
<circle cx="17.6527" cy="6.30405" r="6.30435" transform="rotate(-180 17.6527 6.30405)" fill="#F1F1F1"/>
<circle cx="51.0652" cy="11.9783" r="6.93478" transform="rotate(-180 51.0652 11.9783)" fill="#E8E8E8"/>
<circle cx="17.651" cy="18.9127" r="3.78261" transform="rotate(-180 17.651 18.9127)" fill="#D0D0D0"/>
<circle cx="39.0885" cy="3.78282" r="3.78261" transform="rotate(-180 39.0885 3.78282)" fill="#B5B5B5"/>
<circle cx="49.1744" cy="25.2174" r="3.78261" transform="rotate(-180 49.1744 25.2174)" fill="#C4C4C4"/>
<circle cx="3.7838" cy="10.0865" r="3.78261" transform="rotate(-180 3.7838 10.0865)" fill="#A5A5A5"/>
<circle cx="8.82592" cy="18.9128" r="2.52174" transform="rotate(-180 8.82592 18.9128)" fill="#C4C4C4"/>
<circle cx="15.1306" cy="26.4783" r="2.52174" transform="rotate(-180 15.1306 26.4783)" fill="#E9E9E9"/>
<circle cx="30.2595" cy="6.30443" r="2.52174" transform="rotate(-180 30.2595 6.30443)" fill="#C4C4C4"/>
</svg>
