<svg width="24" height="24" viewBox="0 0 24 24" fill="none" xmlns="http://www.w3.org/2000/svg">
<rect width="24" height="24" fill="white"/>
<path d="M19.5 11H17.9062C17.4688 8.5 15.5 6.53125 13 6.09375V4.5C13 4.25 12.75 4 12.5 4H11.5C11.2188 4 11 4.25 11 4.5V6.09375C8.46875 6.53125 6.5 8.5 6.0625 11H4.5C4.21875 11 4 11.25 4 11.5V12.5C4 12.7812 4.21875 13 4.5 13H6.0625C6.5 15.5312 8.46875 17.5 11 17.9375V19.5C11 19.7812 11.2188 20 11.5 20H12.5C12.75 20 13 19.7812 13 19.5V17.9375C15.5 17.5 17.4688 15.5312 17.9062 13H19.5C19.75 13 20 12.7812 20 12.5V11.5C20 11.25 19.75 11 19.5 11ZM12 16C9.78125 16 8 14.2188 8 12C8 9.8125 9.78125 8 12 8C14.1875 8 16 9.8125 16 12C16 14.2188 14.1875 16 12 16ZM12 9.25C10.4688 9.25 9.25 10.5 9.25 12C9.25 13.5312 10.4688 14.75 12 14.75C13.5 14.75 14.75 13.5312 14.75 12C14.75 10.5 13.5 9.25 12 9.25Z" fill="black"/>
</svg>
